<?xml version="1.0" encoding="utf-8"?>
<!-- Generator: Adobe Illustrator 22.0.0, SVG Export Plug-In . SVG Version: 6.00 Build 0)  -->
<svg version="1.1" id="Capa_1" xmlns="http://www.w3.org/2000/svg" xmlns:xlink="http://www.w3.org/1999/xlink" x="0px" y="0px"
	 viewBox="0 0 195.1 250.5" style="enable-background:new 0 0 195.1 250.5;" xml:space="preserve">
<style type="text/css">
	.st0{fill:#112548;}
	.st1{fill:url(#SVGID_1_);}
	.st2{fill:url(#SVGID_2_);}
	.st3{fill:url(#SVGID_3_);}
	.st4{fill:url(#SVGID_4_);}
	.st5{fill:url(#SVGID_5_);}
	.st6{fill:url(#SVGID_6_);}
	.st7{fill:url(#SVGID_7_);}
	.st8{fill:#FFFFFF;}
	.st9{fill:url(#SVGID_8_);}
	.st10{fill:url(#SVGID_9_);}
	.st11{fill:url(#SVGID_10_);}
	.st12{fill:url(#SVGID_11_);}
	.st13{fill:url(#SVGID_12_);}
	.st14{fill:url(#SVGID_13_);}
	.st15{fill:url(#SVGID_14_);}
	.st16{fill:url(#SVGID_15_);}
	.st17{fill:url(#SVGID_16_);}
	.st18{fill:url(#SVGID_17_);}
	.st19{fill:url(#SVGID_18_);}
	.st20{fill:url(#SVGID_19_);}
	.st21{fill:url(#SVGID_20_);}
	.st22{fill:#002146;}
	.st23{fill:#00FECB;}
	.st24{fill:url(#SVGID_21_);}
	.st25{fill:none;stroke:#00FECB;stroke-miterlimit:10;}
	.st26{fill:#0FE8B4;}
	.st27{fill:#094C7F;}
	.st28{fill:#011528;}
	.st29{fill:url(#SVGID_22_);}
	.st30{fill:url(#SVGID_23_);}
	.st31{fill:#00ACCB;}
	.st32{fill:#00FEF2;}
</style>
<g>
	<path class="st0" d="M105.3,13.3l-13.4-0.1c-2.9,0-5.8,1.3-7.6,3.6c-0.4,0.5-0.8,1.1-1.1,1.8L56.3,72.3c-0.1,0-0.2,0-0.3,0
		l-7.5-0.1c-2.3,0-4.6,1.1-6.1,2.9c-0.4,0.4-0.7,0.9-0.9,1.4l-27.7,55.6c-0.8,1.6-0.9,3.5-0.3,5.2l19.9,56.1
		c0.9,2.6,3.4,4.4,6.2,4.4L63,198c1.3,0,2.5-0.3,3.6-1l3.5,9.8c1.1,3.1,4.1,5.3,7.4,5.3l39.1,0.3c2.4,0,4.7-1.1,6.2-2.9
		c0.5-0.7,1-1.4,1.3-2.2l3.6-9.8c1.1,0.7,2.3,1,3.5,1.1l23.4,0.2c2,0,3.9-0.9,5.2-2.5c0.5-0.6,0.8-1.2,1.1-1.9l20.8-55.8
		c0.6-1.7,0.5-3.6-0.2-5.2l-26.9-56.1c-1.3-2.6-3.9-4.3-6.8-4.3l-7.6-0.1c-0.1,0-0.2,0-0.3,0L114,18.8
		C112.4,15.5,109,13.4,105.3,13.3z M91.9,14.1l13.4,0.1L91.9,14.1c-0.4,0-0.8,0-1.1,0.1C91.1,14.1,91.5,14.1,91.9,14.1z
		 M154.7,194.1c0.1,0,0.3,0,0.4,0C154.9,194.1,154.8,194.1,154.7,194.1z M158.5,196.4c-0.2,0.1-0.3,0.3-0.5,0.4
		C158.2,196.6,158.4,196.5,158.5,196.4z M42.3,76.9c0.1-0.3,0.3-0.5,0.4-0.8C42.6,76.4,42.5,76.6,42.3,76.9z M48.5,76.9
		c-0.2,0-0.4,0-0.6,0.1C48.1,76.9,48.3,76.9,48.5,76.9z M44.2,74.6c0.2-0.2,0.5-0.4,0.7-0.5C44.6,74.2,44.4,74.4,44.2,74.6z M45,74
		c0.2-0.1,0.4-0.2,0.7-0.4C45.4,73.8,45.2,73.9,45,74z M176.5,135.8c0.1,0.3,0.1,0.6,0,0.9l-20.8,55.8c0,0.1-0.1,0.2-0.2,0.3
		c-0.2,0.3-0.5,0.4-0.9,0.4l-23.4-0.2c-0.5,0-0.9-0.3-1.1-0.8l-0.3-0.8l28-75.2c0.7-2,0.6-4.3-0.3-6.2l-15.1-31.6l5.1,0
		c0.8,0,1.6,0.5,1.9,1.2L176.5,135.8z M18.8,134.5L46.5,79c0.1-0.1,0.2-0.3,0.3-0.4c0.4-0.5,1.1-0.8,1.7-0.8l5.1,0l-15.6,31.3
		c-1,1.9-1.1,4.2-0.4,6.2L64.4,191l-0.3,0.8c0,0.1-0.1,0.2-0.2,0.3c-0.2,0.3-0.5,0.4-0.9,0.4l-23.4-0.2c-0.5,0-0.9-0.3-1.1-0.8
		l-19.9-56.1C18.6,135.1,18.6,134.8,18.8,134.5z M85.6,134.7c0.2,0.5,0.3,1.1,0.1,1.6l-9.2,24.6l9.2-24.6
		C85.9,135.7,85.9,135.2,85.6,134.7l-26.8-56c0-0.1-0.1-0.1-0.1-0.2c0,0.1,0.1,0.1,0.1,0.2L85.6,134.7z M42,113.7l25.4,71.7l0,0
		L42,113.7z M65.3,191l-0.4,1.1c0,0.1-0.1,0.2-0.1,0.3c0.1-0.1,0.1-0.2,0.1-0.3L65.3,191L38.4,115c-0.1-0.2-0.1-0.5-0.2-0.7
		c0.1,0.2,0.1,0.5,0.2,0.7L65.3,191z M84.9,135.1c0.1,0.3,0.1,0.6,0,0.9l-17.5,46.9l-24.6-69.4c-0.2-0.6-0.2-1.3,0.1-1.9l15.7-31.4
		L84.9,135.1z M38.7,109.5c-0.2,0.4-0.4,0.9-0.5,1.3C38.3,110.4,38.5,109.9,38.7,109.5l8.1-16.3L38.7,109.5z M64.7,192.4
		c0,0.1-0.1,0.1-0.1,0.2C64.6,192.5,64.7,192.5,64.7,192.4z M64.6,192.6c-0.1,0.1-0.2,0.2-0.2,0.2C64.4,192.8,64.5,192.7,64.6,192.6
		z M64.2,192.9c-0.1,0.1-0.2,0.1-0.3,0.2C64,193.1,64.1,193,64.2,192.9z M63.9,193.2c-0.1,0.1-0.2,0.1-0.3,0.1
		C63.6,193.3,63.8,193.2,63.9,193.2z M69.4,191l19.9-53.4c0.1-0.4,0.2-0.7,0.3-1.1c-0.1,0.4-0.2,0.8-0.3,1.1L69.4,191l5.1,14.3
		L69.4,191z M75.2,205l-5-14l19.8-53.1c0.6-1.7,0.5-3.6-0.2-5.2L63,76.7c-0.4-0.8-0.9-1.5-1.6-2.2l26.7-53.4
		c0.1-0.3,0.3-0.5,0.5-0.8c0.8-1,2-1.6,3.3-1.5l13.4,0.1c1.6,0,3,0.9,3.7,2.4l25.8,53.8c-0.3,0.2-0.5,0.5-0.7,0.8
		c-0.4,0.4-0.7,0.9-0.9,1.4l-27.7,55.6c-0.8,1.6-0.9,3.5-0.3,5.2l18.9,53.4l-5.2,13.9c-0.1,0.2-0.2,0.5-0.4,0.7
		c-0.5,0.6-1.2,0.9-1.9,0.9l-39.1-0.3C76.5,206.6,75.6,205.9,75.2,205z M137.4,79.3l-4.3,8.6L137.4,79.3c0.1-0.1,0.2-0.3,0.2-0.4
		C137.5,79,137.4,79.2,137.4,79.3z M134.5,76.7c0.1-0.1,0.2-0.3,0.3-0.4c0,0,0,0,0,0C134.7,76.5,134.6,76.6,134.5,76.7z M134,77.6
		c0.1-0.2,0.2-0.4,0.4-0.6C134.2,77.2,134.1,77.4,134,77.6z M110.3,136.1c-0.1-0.3-0.1-0.6,0.1-0.9l27.2-54.5l15.2,31.6
		c0.3,0.6,0.3,1.3,0.1,1.9l-25.7,69L110.3,136.1z M157.5,112.5c0,0.3,0.1,0.7,0.1,1C157.6,113.1,157.6,112.8,157.5,112.5z M135.1,76
		c0.1-0.1,0.1-0.1,0.2-0.2C135.2,75.8,135.2,75.9,135.1,76z M135.9,75.3C135.9,75.3,135.9,75.3,135.9,75.3L135.9,75.3
		C135.9,75.3,135.9,75.3,135.9,75.3z M153.6,114.6c0.1-0.2,0.1-0.4,0.2-0.6c0-0.3,0-0.6,0-1c0,0.3,0.1,0.6,0,1
		C153.8,114.2,153.7,114.4,153.6,114.6l-26.6,71.3L153.6,114.6z M141.2,77.6L141.2,77.6l6.5,0.1L141.2,77.6z M109.8,20.8
		c-0.4-0.9-1.1-1.6-1.8-2.1C108.7,19.3,109.4,20,109.8,20.8l13,27.2L109.8,20.8z M91.8,17.9C91.8,17.9,91.8,17.9,91.8,17.9
		C91.8,17.9,91.8,17.9,91.8,17.9l13.4,0.1L91.8,17.9z M87.3,15.3c0.3-0.2,0.6-0.3,0.9-0.5C87.9,15,87.6,15.2,87.3,15.3z M91.2,17.9
		c-0.1,0-0.1,0-0.2,0C91.1,17.9,91.1,17.9,91.2,17.9z M90.3,18.1c0.1,0,0.1,0,0.2-0.1C90.5,18.1,90.4,18.1,90.3,18.1z M88,19.6
		c0.1-0.1,0.1-0.1,0.2-0.2C88.1,19.5,88.1,19.5,88,19.6z M88.5,19.1c0,0,0.1-0.1,0.1-0.1C88.6,19,88.5,19.1,88.5,19.1z M89.2,18.6
		C89.2,18.6,89.2,18.6,89.2,18.6C89.2,18.6,89.2,18.6,89.2,18.6z M89.7,18.3c0.1,0,0.1-0.1,0.2-0.1C89.9,18.3,89.8,18.3,89.7,18.3z
		 M87.6,20.1c0-0.1,0.1-0.1,0.1-0.2C87.7,20,87.7,20.1,87.6,20.1z M83.9,19c0.2-0.3,0.4-0.7,0.6-1C84.3,18.3,84.1,18.6,83.9,19z
		 M61.8,76.4c0.1,0.2,0.3,0.4,0.4,0.7l13.4,28L62.2,77C62.1,76.8,62,76.6,61.8,76.4z M58.5,78.3l-8.2,16.5L58.5,78.3L58.5,78.3z
		 M47.2,77.1c0.2-0.1,0.4-0.1,0.6-0.2C47.6,77,47.4,77.1,47.2,77.1z M46.1,78c0.1-0.2,0.3-0.3,0.4-0.4C46.4,77.7,46.3,77.8,46.1,78z
		 M46.6,77.5c0.1-0.1,0.3-0.2,0.5-0.3C47,77.3,46.8,77.4,46.6,77.5z M45.7,78.6c0.1-0.2,0.2-0.3,0.3-0.5
		C45.9,78.2,45.8,78.4,45.7,78.6z M38.5,192.8c0.3,0.2,0.7,0.4,1.1,0.4C39.3,193.2,38.9,193,38.5,192.8z M63.4,193.3
		c-0.1,0-0.3,0-0.4,0C63.2,193.4,63.3,193.3,63.4,193.3z M76,207.1c-0.3-0.1-0.6-0.3-0.8-0.6C75.5,206.8,75.7,206.9,76,207.1
		c0.4,0.2,0.9,0.4,1.5,0.4l25.2,0.2l-25.2-0.2C77,207.4,76.5,207.3,76,207.1z M116.6,207.8c0.2,0,0.4,0,0.7-0.1
		C117.1,207.7,116.8,207.8,116.6,207.8z M120.5,210.4c-0.2,0.2-0.5,0.3-0.7,0.4C120.1,210.7,120.3,210.5,120.5,210.4z M118,207.5
		c-0.2,0.1-0.4,0.1-0.6,0.2C117.6,207.6,117.8,207.5,118,207.5z M119.1,206.6c-0.1,0.1-0.3,0.3-0.4,0.4
		C118.9,206.9,119,206.7,119.1,206.6z M118.6,207.1c-0.2,0.1-0.4,0.2-0.5,0.3C118.3,207.3,118.4,207.2,118.6,207.1z M119.7,205.6
		c-0.1,0.2-0.1,0.3-0.2,0.5C119.6,206,119.7,205.8,119.7,205.6z M119.4,206.2c-0.1,0.1-0.1,0.2-0.2,0.3
		C119.3,206.4,119.3,206.3,119.4,206.2z M106,137.7c-0.1-0.2-0.1-0.4-0.2-0.6c-0.1-0.4-0.1-0.8-0.2-1.1c0-0.4,0-0.8,0.1-1.2
		c-0.1,0.4-0.1,0.8-0.1,1.2c0,0.4,0.1,0.8,0.2,1.1C105.8,137.3,105.9,137.5,106,137.7l19.1,53.7L106,137.7z M130.2,193.5
		c-0.3-0.2-0.6-0.6-0.7-1C129.6,193,129.8,193.3,130.2,193.5c0.3,0.2,0.7,0.4,1.1,0.4C130.9,193.9,130.5,193.8,130.2,193.5z
		 M155.5,193.9c-0.1,0.1-0.2,0.1-0.3,0.1C155.3,194,155.4,193.9,155.5,193.9z M156.2,193.4c-0.1,0.1-0.2,0.2-0.2,0.2
		C156,193.5,156.1,193.5,156.2,193.4z M155.9,193.7c-0.1,0.1-0.2,0.1-0.3,0.2C155.6,193.8,155.8,193.8,155.9,193.7z M156.5,192.8
		l20.8-55.8c0-0.1,0.1-0.3,0.1-0.4c0,0.1-0.1,0.3-0.1,0.4L156.5,192.8c0,0.1-0.1,0.2-0.1,0.3C156.5,193,156.5,192.9,156.5,192.8z
		 M156.3,193.2c0,0.1-0.1,0.1-0.1,0.2C156.3,193.3,156.3,193.2,156.3,193.2z M159.7,194.9c-0.1,0.1-0.1,0.2-0.2,0.3
		C159.6,195.1,159.6,195,159.7,194.9z M177.3,135.4l-26.9-56.1c-0.1-0.3-0.3-0.5-0.5-0.7c0.2,0.2,0.3,0.4,0.5,0.7L177.3,135.4z
		 M88.5,14.7c0.2-0.1,0.5-0.2,0.7-0.3C89,14.6,88.7,14.6,88.5,14.7z M89.6,14.4c0.3-0.1,0.5-0.1,0.8-0.2
		C90.1,14.3,89.9,14.3,89.6,14.4z M87.2,15.4c-0.3,0.2-0.6,0.4-0.9,0.6C86.6,15.8,86.9,15.6,87.2,15.4z M86,16.3
		c-0.2,0.2-0.4,0.4-0.6,0.5C85.6,16.6,85.8,16.4,86,16.3z M85.2,17.1c-0.2,0.2-0.3,0.4-0.5,0.6c0.1-0.1,0.2-0.2,0.3-0.4
		C85,17.3,85.1,17.2,85.2,17.1z M48.6,73.1l7.5,0.1c0.3,0,0.5,0,0.8,0.1c-0.3,0-0.5-0.1-0.8-0.1L48.6,73.1c-0.3,0-0.6,0-0.9,0.1
		C48,73.1,48.3,73.1,48.6,73.1z M45.9,73.6c0.2-0.1,0.4-0.1,0.6-0.2C46.3,73.4,46.1,73.5,45.9,73.6z M46.8,73.3
		c0.2-0.1,0.4-0.1,0.6-0.1C47.2,73.2,47,73.2,46.8,73.3z M44,74.8c-0.2,0.1-0.3,0.3-0.5,0.4C43.7,75,43.8,74.9,44,74.8z M43.3,75.4
		c-0.1,0.2-0.3,0.3-0.4,0.5c0.1-0.1,0.1-0.2,0.2-0.3C43.2,75.5,43.3,75.5,43.3,75.4z M14.6,132.5l13.9-27.8L14.6,132.5
		c-0.2,0.3-0.3,0.7-0.4,1.1C14.3,133.2,14.4,132.8,14.6,132.5z M116.6,211.6c0.3,0,0.7,0,1-0.1C117.2,211.5,116.9,211.6,116.6,211.6
		z M119.7,210.9c-0.3,0.1-0.6,0.3-0.9,0.4C119.1,211.1,119.4,211,119.7,210.9z M118.6,211.3c-0.2,0.1-0.5,0.1-0.7,0.2
		C118.1,211.4,118.3,211.3,118.6,211.3z M121.5,209.6c0.2-0.2,0.4-0.4,0.6-0.7c0,0,0,0,0,0C121.9,209.2,121.7,209.4,121.5,209.6z
		 M120.8,210.2c0.2-0.1,0.4-0.3,0.6-0.5C121.2,209.9,121,210.1,120.8,210.2z M122.8,208c-0.1,0.1-0.1,0.2-0.2,0.3
		C122.6,208.2,122.7,208.1,122.8,208z M123.3,207l4.1-10.9l0,0L123.3,207z M154.6,197.9c0.3,0,0.5,0,0.8-0.1
		C155.2,197.9,154.9,197.9,154.6,197.9z M157.9,196.9c-0.2,0.1-0.4,0.2-0.6,0.3C157.5,197.1,157.7,197,157.9,196.9z M157.2,197.3
		c-0.2,0.1-0.5,0.2-0.7,0.3C156.7,197.5,156.9,197.4,157.2,197.3z M156.2,197.6c-0.2,0.1-0.4,0.1-0.6,0.1
		C155.9,197.7,156,197.7,156.2,197.6z M158.7,196.3c0.2-0.2,0.4-0.4,0.5-0.6c0,0,0,0,0,0C159,195.9,158.8,196.1,158.7,196.3z
		 M180.7,133.8c0.1,0.2,0.2,0.4,0.2,0.5C180.8,134.1,180.8,134,180.7,133.8l-9.3-19.4L180.7,133.8z M151.3,74.9
		c-0.5-0.3-1.1-0.6-1.7-0.8C150.2,74.3,150.8,74.6,151.3,74.9z M108.9,15c-0.7-0.3-1.5-0.6-2.3-0.7C107.4,14.4,108.2,14.7,108.9,15
		c1.5,0.7,2.8,1.8,3.7,3.1C111.7,16.8,110.4,15.7,108.9,15z"/>
	<path class="st0" d="M77.3,216.1c-0.8,0-1.6,0.4-2.2,1c0,0-0.1,0.1-0.1,0.1c-0.5,0.7-0.7,1.7-0.4,2.5l5.5,15.5
		c0.4,1.1,1.4,1.8,2.6,1.8l28.3,0.2c0.8,0,1.6-0.4,2.2-1c0.2-0.2,0.3-0.5,0.4-0.8l5.7-15.4c0.3-0.8,0.2-1.8-0.3-2.5
		c-0.5-0.7-1.4-1.2-2.3-1.2L77.3,216.1z M75.4,218.6c0-0.3,0.2-0.6,0.3-0.8c0,0,0-0.1,0.1-0.1c0-0.1,0.1-0.1,0.1-0.1
		c-0.1,0.1-0.2,0.1-0.2,0.2C75.5,218,75.4,218.3,75.4,218.6c0,0.1,0,0.3,0,0.5C75.3,218.9,75.3,218.8,75.4,218.6z M109.1,231.8
		l-24.4-0.2l-3.5-9.9l31.6,0.3L109.1,231.8z M109.7,232.6L109.7,232.6l-25.6-0.2L109.7,232.6z M79.9,220.8L79.9,220.8l17,0.1
		L79.9,220.8z M75.4,219.5c0-0.1-0.1-0.2-0.1-0.4C75.4,219.3,75.4,219.4,75.4,219.5l5.5,15.5L75.4,219.5z M82.7,236.2
		c-0.2,0-0.4,0-0.6-0.1C82.3,236.2,82.5,236.2,82.7,236.2l28.3,0.2c0.2,0,0.4,0,0.5-0.1c-0.2,0-0.3,0.1-0.5,0.1L82.7,236.2z
		 M112.1,236.1c0.1-0.1,0.3-0.2,0.4-0.4c0,0,0,0,0,0C112.3,235.9,112.2,236,112.1,236.1z M111.6,236.3c0.1,0,0.2-0.1,0.3-0.2
		C111.8,236.2,111.7,236.3,111.6,236.3z M112.7,235.2c-0.1,0.2-0.2,0.3-0.3,0.5C112.6,235.5,112.7,235.4,112.7,235.2z M117.9,217.8
		c-0.1-0.1-0.2-0.2-0.4-0.3c-0.3-0.1-0.6-0.2-0.9-0.2L77.2,217c-0.1,0-0.3,0-0.4,0c0.1,0,0.3-0.1,0.4,0l39.5,0.3
		c0.3,0,0.6,0.1,0.9,0.2C117.7,217.6,117.8,217.7,117.9,217.8z M76,217.4c0.1-0.1,0.1-0.1,0.2-0.1C76.2,217.3,76.1,217.3,76,217.4z
		 M76.4,217.2c0.1,0,0.2-0.1,0.3-0.1C76.6,217.1,76.5,217.1,76.4,217.2z"/>
</g>
</svg>
