<?xml version="1.0" encoding="utf-8"?>
<!-- Generator: Adobe Illustrator 22.0.1, SVG Export Plug-In . SVG Version: 6.00 Build 0)  -->
<svg version="1.1" id="Layer_1" xmlns="http://www.w3.org/2000/svg" xmlns:xlink="http://www.w3.org/1999/xlink" x="0px" y="0px"
	 viewBox="0 0 1052 376" style="enable-background:new 0 0 1052 376;" xml:space="preserve">
<style type="text/css">
	.st0{fill:#002146;}
	.st1{fill:url(#SVGID_1_);}
	.st2{opacity:0.1;fill:url(#SVGID_2_);}
	.st3{fill:url(#SVGID_3_);}
	.st4{fill:url(#SVGID_4_);}
	.st5{opacity:0.1;fill:url(#SVGID_5_);}
	.st6{fill:#F5FBFF;}
	.st7{fill:#3EDDD0;}
	.st8{fill:#FFFFFF;}
	.st9{fill:#FBFCFE;}
	.st10{fill:#002047;}
	.st11{fill:#00EAC1;}
	.st12{fill:#0640AD;}
	.st13{fill:#6F9EDC;}
	.st14{fill:#051837;}
	.st15{fill:#3174CF;}
	.st16{fill:#00A4FE;}
	.st17{fill:#34333D;}
	.st18{fill:#033B79;}
	.st19{fill:url(#SVGID_6_);}
	.st20{fill:url(#SVGID_7_);}
	.st21{fill:none;stroke:#FFFFFF;stroke-miterlimit:10;}
	.st22{fill:url(#SVGID_12_);}
	.st23{opacity:0.1;fill:url(#SVGID_13_);}
	.st24{fill:url(#SVGID_14_);}
	.st25{fill:url(#SVGID_15_);}
	.st26{opacity:0.1;fill:url(#SVGID_16_);}
	.st27{fill:url(#SVGID_17_);}
	.st28{fill:url(#SVGID_18_);}
	.st29{fill:url(#SVGID_23_);}
	.st30{fill:url(#SVGID_24_);}
	.st31{opacity:0.1;fill:url(#SVGID_25_);}
</style>
<g>
	<g>
		<path class="st8" d="M253.3,197.4l-32.6-66.6c-1.3-2.8-4.2-4.5-7.3-4.5h-9c-0.3,0-0.6,0-0.9,0.1l-31.8-64.9
			c-1.8-3.6-5.5-5.9-9.5-5.9h-16c-4,0-7.7,2.3-9.5,5.9L105,126.3c-0.3,0-0.6-0.1-0.9-0.1h-9c-3.1,0-6,1.8-7.4,4.6l-32.6,66.6
			c-0.8,1.7-0.9,3.6-0.3,5.4l24.3,66.8c1,2.7,3.6,4.5,6.5,4.5h27.9c1.8,0,3.5-0.7,4.7-1.9l4.7,13c1.2,3.3,4.4,5.6,7.9,5.6h46.7
			c3.5,0,6.7-2.2,7.9-5.6l4.7-13c1.3,1.2,2.9,1.9,4.7,1.9h27.9c2.9,0,5.5-1.8,6.5-4.5l24.3-66.8C254.2,201,254.1,199.1,253.3,197.4z
			 M87.8,171.8l19.3-39.4c0.1,0.2,0.2,0.3,0.3,0.5l32.6,66.6c0.3,0.6,0.3,1.3,0.1,1.9l-21.4,58.8l-31-85.3
			C87.3,173.8,87.4,172.7,87.8,171.8z M83.8,169.8c-1,2-1.1,4.5-0.3,6.6l32.8,90.3l-0.5,1.3c-0.3,0.9-1.2,1.6-2.2,1.6H85.7
			c-1,0-1.9-0.6-2.2-1.6l-24.3-66.8c-0.2-0.6-0.2-1.3,0.1-1.9l32.6-66.6c0.6-1.3,1.9-2.1,3.3-2.1h7.7L83.8,169.8z M144.3,202.8
			c0.6-1.8,0.5-3.7-0.3-5.4l-32.6-66.6c-0.5-1.1-1.3-2-2.3-2.8l31.6-64.7c1-2,3.1-3.4,5.4-3.4h16c2.3,0,4.4,1.3,5.4,3.4l31.6,64.7
			c-0.9,0.7-1.7,1.7-2.3,2.8l-32.6,66.6c-0.8,1.7-0.9,3.6-0.3,5.4l23.2,63.9l-6.2,17c-0.6,1.5-2,2.6-3.7,2.6h-46.7
			c-1.6,0-3.1-1-3.7-2.6l-6.2-17L144.3,202.8z M168.5,201.3c-0.2-0.6-0.2-1.3,0.1-1.9l32.6-66.6c0.1-0.2,0.2-0.3,0.3-0.5l19.3,39.4
			c0.5,1,0.5,2.1,0.2,3.1l-31,85.3L168.5,201.3z M225.1,176.4c0.8-2.1,0.7-4.5-0.3-6.6l-19.1-39h7.8c1.4,0,2.6,0.8,3.2,2l32.6,66.6
			c0.3,0.6,0.3,1.3,0.1,1.9L225.1,268c-0.3,0.9-1.2,1.6-2.2,1.6H195c-1,0-1.9-0.6-2.2-1.6l-0.5-1.3L225.1,176.4z"/>
		<path class="st8" d="M177.8,297.6h-47.1c-0.7,0-1.4,0.4-1.9,1c-0.4,0.6-0.5,1.4-0.3,2.1l6.7,18.4c0.3,0.9,1.2,1.5,2.1,1.5h33.7
			c0.9,0,1.8-0.6,2.1-1.5l6.7-18.4c0.3-0.7,0.1-1.5-0.3-2.1C179.2,298,178.5,297.6,177.8,297.6z M174.6,302.1l-5,13.9H139l-5-13.9
			H174.6z"/>
	</g>
	<g>
		<path class="st8" d="M331.5,125.1h58.9c29.9,0,40.1,19.3,40.1,38.7c0,13.9-5.2,28.4-19.4,31.7c11,2.1,21.2,13.6,21.2,33.8
			c0,24.7-10.7,42.2-41.5,42.2h-59.2V125.1z M389.3,184.7c11.8,0,18.2-6.8,18.2-19.4c0-15.7-9.9-19.1-18.2-19.1h-34.5v38.5H389.3z
			 M390,250.3c8.9,0,19-3.5,19-22c0-12.2-5.4-23.2-19-23.2h-35.2v45.3H390z"/>
		<path class="st8" d="M454.1,159.5c0-29,16.6-35.6,39-35.6c10.6,0,37.2,2.8,46.2,4.2v5.8c-12.8-0.8-46.2-1.8-46.2-1.8
			c-18.6-0.8-30.8,4.6-30.8,27.4v13.2c0,20,10.2,22.8,26.4,22.8h24.6c26.6,0,32,14.8,32,31.2v13.6c0,28.4-19.4,32.8-39.2,32.8
			c-9.8,0-38.8-2-48-3.6v-6.2c8.6,0.8,29.4,1.6,48,1.6c14.6,0,31-3.2,31-24.6v-13.6c0-15-6.2-22.8-23.8-22.8H489
			c-31.4,0-35-15.2-35-31.2V159.5z"/>
		<path class="st8" d="M569.8,125.1h56.8c15.8,0,35.2,5,35.2,40.8c0,41.2-20.4,42.8-35.2,42.8c-8,0-47.6-2.2-48.6-2.8v65.5h-8.2
			V125.1z M626.5,200.3c14,0,27-4.4,26.8-34.4c-0.2-29.2-14.4-32.4-26.8-32.4H578v66.8H626.5z"/>
		<path class="st8" d="M718.9,125.1h9.4l52.2,146.3H771l-16.4-47.2h-63.8l-16.8,47.2h-9.6L718.9,125.1z M751.7,216.1l-28.2-80.1
			l-29.6,80.1H751.7z"/>
		<path class="st8" d="M839.8,123.5c10.4,0,30.8,2.2,44.8,4.8v6c-0.2,0-26.4-2.6-44.8-2.6c-28,0-40.4,13.2-40.4,66.6
			c0,41.2,11.4,66.2,40.6,66.2c21,0,44.6-2,44.6-2v5.8c-14,2.6-34.4,4.4-44.8,4.4c-37,0-48.6-31.8-48.6-74.7
			C791.2,151.7,799.4,123.5,839.8,123.5z"/>
		<path class="st8" d="M911.6,151.1c0-19.6,12.2-26.4,25.2-26l60.8,2.4v5.8h-60.8c-11.8,0-17,6-17,17.8v43.6l69.7,1.4v5.8l-69.7,1.4
			v43.6c0,15.8,9.8,17,19,17h58.8v5.8l-58.8,2.4c-13.2,0.6-27.2-2.6-27.2-25.2V151.1z"/>
	</g>
</g>
</svg>
